{"title":"One Flew Over the Cuckoo's Nest 1975 720p BluRay x264 AC3 5.1-Ri","uid":12087583,"size":2223535135,"categoryP":"video","categoryS":"movies","magnet":"?xt=urn:btih:c69736696fbdcd4f6c34fdab0d25e659119f24d6&amp;dn=One+Flew+Over+the+Cuckoo%27s+Nest+1975+720p+BluRay+x264+AC3+5.1-Ri&amp;tr=udp%3A%2F%2Ftracker.openbittorrent.com%3A80&amp;tr=udp%3A%2F%2Fopen.demonii.com%3A1337&amp;tr=udp%3A%2F%2Ftracker.coppersurfer.tk%3A6969&amp;tr=udp%3A%2F%2Fexodus.desync.com%3A6969","seeders":0,"leechers":0,"uploader":"lyrical1986","files":3,"time":1435945431,"description":" &lt;a href=&quot;http://i284.photobucket.com/albums/ll25/Colin_Armo/one_flew_over_the_cuckoo_s_nest_by_blitzcadet-d5uyo1u_zpsyalddtxp.jpg&quot; rel=&quot;nofollow&quot; target=&quot;_NEW&quot;&gt;http://i284.photobucket.com/albums/ll25/Colin_Armo/one_flew_over_the_cuckoo_s_nest_by_blitzcadet-d5uyo1u_zpsyalddtxp.jpg&lt;/a&gt;\n\nOne Flew Over the Cuckoo's Nest 1975 720p BluRay x264 AC3 5.1-RiPRG\n\nUpon admittance to a mental institution, a brash rebel rallies the patients to take on the oppressive head nurse.\n\nMichael Berryman ... Ellis\nPeter Brocco \t... \tCol. Matterson\nDean R. Brooks \t... \tDr. Spivey\nAlonzo Brown \t... \tMiller \n &lt;a href=&quot;\nhttp://www.imdb.com/title/tt0073486/&quot; rel=&quot;nofollow&quot; target=&quot;_NEW&quot;&gt;\nhttp://www.imdb.com/title/tt0073486/&lt;/a&gt;\n\nFormat                                   : Matroska\nFormat version                           : Version 2\nFile size                                : 2.06 GiB\nDuration                                 : 2h 13mn\nOverall bit rate                         : 2 209 Kbps\nWriting library                          : Lavf55.12.0\n\nVideo\nID                                       : 1\nFormat                                   : AVC\nFormat/Info                              : Advanced Video Codec\nFormat profile                           : Main@L4\nFormat settings, CABAC                   : Yes\nFormat settings, ReFrames                : 4 frames\nCodec ID                                 : V_MPEG4/ISO/AVC\nDuration                                 : 2h 13mn\nBit rate                                 : 2 000 Kbps\nWidth                                    : 1 280 pixels\nHeight                                   : 720 pixels\nDisplay aspect ratio                     : 16:9\nFrame rate mode                          : Constant\nFrame rate                               : 23.976 fps\nColor space                              : YUV\nChroma subsampling                       : 4:2:0\nBit depth                                : 8 bits\nScan type                                : Progressive\nBits/(Pixel*Frame)                       : 0.091\nStream size                              : 1.81 GiB (88%)\nWriting library                          : x264 core 142 r2479 dd79a61\nDefault                                  : Yes\nForced                                   : No\nColor range                              : Limited\n\nAudio\nID                                       : 2\nFormat                                   : AC-3\nFormat/Info                              : Audio Coding 3\nMode extension                           : CM (complete main)\nFormat settings, Endianness              : Big\nCodec ID                                 : A_AC3\nDuration                                 : 2h 13mn\nBit rate mode                            : Constant\nBit rate                                 : 224 Kbps\nChannel(s)                               : 6 channels\nChannel positions                        : Front: L C R, Side: L R, LFE\nSampling rate                            : 48.0 KHz\nCompression mode                         : Lossy\nDelay relative to video                  : 27ms\nStream size                              : 214 MiB (10%)\nTitle                                    : Surround\nLanguage                                 : English\nDefault                                  : Yes\nForced                                   : No\n &lt;a href=&quot;\nhttp://i284.photobucket.com/albums/ll25/Colin_Armo/vlcsnap-2015-07-03-16h23m08s010_zps0f44kj7u.png&quot; rel=&quot;nofollow&quot; target=&quot;_NEW&quot;&gt;\nhttp://i284.photobucket.com/albums/ll25/Colin_Armo/vlcsnap-2015-07-03-16h23m08s010_zps0f44kj7u.png&lt;/a&gt; &lt;a href=&quot;\nhttp://i284.photobucket.com/albums/ll25/Colin_Armo/vlcsnap-2015-07-03-16h22m36s042_zpsvlkrodti.png&quot; rel=&quot;nofollow&quot; target=&quot;_NEW&quot;&gt;\nhttp://i284.photobucket.com/albums/ll25/Colin_Armo/vlcsnap-2015-07-03-16h22m36s042_zpsvlkrodti.png&lt;/a&gt; &lt;a href=&quot;\nhttp://i284.photobucket.com/albums/ll25/Colin_Armo/vlcsnap-2015-07-03-16h22m24s943_zpsxycwtr6b.png&quot; rel=&quot;nofollow&quot; target=&quot;_NEW&quot;&gt;\nhttp://i284.photobucket.com/albums/ll25/Colin_Armo/vlcsnap-2015-07-03-16h22m24s943_zpsxycwtr6b.png&lt;/a&gt; &lt;a href=&quot;\nhttp://i284.photobucket.com/albums/ll25/Colin_Armo/vlcsnap-2015-07-03-16h20m51s399_zpsaystxy8a.png&quot; rel=&quot;nofollow&quot; target=&quot;_NEW&quot;&gt;\nhttp://i284.photobucket.com/albums/ll25/Colin_Armo/vlcsnap-2015-07-03-16h20m51s399_zpsaystxy8a.png&lt;/a&gt;","torrent":{"xt":"urn:btih:c69736696fbdcd4f6c34fdab0d25e659119f24d6","amp;dn":"One+Flew+Over+the+Cuckoo%27s+Nest+1975+720p+BluRay+x264+AC3+5.1-Ri","amp;tr":["udp%3A%2F%2Ftracker.openbittorrent.com%3A80","udp%3A%2F%2Fopen.demonii.com%3A1337","udp%3A%2F%2Ftracker.coppersurfer.tk%3A6969","udp%3A%2F%2Fexodus.desync.com%3A6969"],"infoHash":"c69736696fbdcd4f6c34fdab0d25e659119f24d6","infoHashBuffer":{"type":"Buffer","data":[198,151,54,105,111,189,205,79,108,52,253,171,13,37,230,89,17,159,36,214]},"announce":[],"urlList":[]}}